<svg xmlns="http://www.w3.org/2000/svg" version="1.1" xmlns:xlink="http://www.w3.org/1999/xlink" xmlns:svgjs="http://svgjs.dev/svgjs" width="1000" height="1000" viewBox="0 0 1000 1000"><rect width="1000" height="1000" fill="#ffffff"></rect><g transform="matrix(0.7,0,0,0.7,149.57578021871683,418.69560709836236)"><svg viewBox="0 0 396 92" data-background-color="#ffffff" preserveAspectRatio="xMidYMid meet" height="232" width="1000" xmlns="http://www.w3.org/2000/svg" xmlns:xlink="http://www.w3.org/1999/xlink"><g id="tight-bounds" transform="matrix(1,0,0,1,0.23998719055447282,0.059140879640438015)"><svg viewBox="0 0 395.52 91.88172028445648" height="91.88172028445648" width="395.52"><g><svg viewBox="0 0 395.52 91.88172028445648" height="91.88172028445648" width="395.52"><g><svg viewBox="0 0 395.52 91.88172028445648" height="91.88172028445648" width="395.52"><g><svg viewBox="0 0 395.52 91.88172028445648" height="91.88172028445648" width="395.52"><g><svg viewBox="0 0 395.52 91.88172028445648" height="91.88172028445648" width="395.52"><g transform="matrix(1,0,0,1,0,0)"><svg width="395.52" viewBox="3.3499999046325684 -34.29999923706055 152.239990234375 34.29999923706055" height="91.88172028445648" data-palette-color="#000000"><g class="undefined-text-0" data-fill-palette-color="primary" id="text-0"><path d="M3.35 0L3.35-34.3 28.2-34.3 28.2-28.15 10.6-28.15 10.6-19.7 26.35-19.7 26.35-13.55 10.6-13.55 10.6 0 3.35 0ZM33.9 0L33.9-34.3 41.15-34.3 41.15-6.3 59.65-6.3 59.65 0 33.9 0ZM74.19 0L74.19-13.85 61.09-34.3 69.34-34.3 77.89-20.3 78.14-20.3 86.59-34.3 94.44-34.3 81.44-13.85 81.44 0 74.19 0ZM106.09 0L106.09-28.05 95.49-28.05 95.49-34.3 123.94-34.3 123.94-28.05 113.34-28.05 113.34 0 106.09 0ZM128.34 0L128.34-34.3 155.29-34.3 155.29-28.15 135.59-28.15 135.59-20.6 153.09-20.6 153.09-14.45 135.59-14.45 135.59-6.15 155.59-6.15 155.59 0 128.34 0Z" fill="#000000" data-fill-palette-color="primary"></path></g></svg></g></svg></g></svg></g></svg></g></svg></g><defs></defs></svg><rect width="395.52" height="91.88172028445648" fill="none" stroke="none" visibility="hidden"></rect></g></svg></g></svg>